<svg width="592" height="194" viewBox="0 0 592 194" fill="none" xmlns="http://www.w3.org/2000/svg">
<path d="M113.991 105.738C89.8774 105.738 70.2546 125.352 70.2546 149.466C70.2546 173.587 89.8693 193.21 113.991 193.21C138.096 193.21 157.719 173.596 157.719 149.466C157.719 125.361 138.096 105.738 113.991 105.738ZM113.991 168.909C103.267 168.909 94.5562 160.189 94.5562 149.466C94.5562 138.759 103.267 130.039 113.991 130.039C124.706 130.039 133.417 138.759 133.417 149.466C133.417 160.181 124.706 168.909 113.991 168.909Z" fill="#FFC800"/>
<path d="M477.263 113.631C455.326 113.631 437.486 131.479 437.486 153.408C437.486 175.338 455.334 193.202 477.263 193.202C499.193 193.202 517.041 175.338 517.041 153.408C517.041 131.479 499.201 113.631 477.263 113.631ZM477.263 168.909C468.716 168.909 461.779 161.956 461.779 153.408C461.779 144.877 468.716 137.924 477.263 137.924C485.795 137.924 492.747 144.877 492.747 153.408C492.747 161.956 485.795 168.909 477.263 168.909Z" fill="#FFC800"/>
<path d="M418.795 162.578H169.318V186.879H418.795V162.578Z" fill="#FFC800"/>
<path d="M583.426 90.9572L571.918 79.4648L549.939 68.954L401.062 54.8442L324.763 0H260.602L179.109 13.8644L84.0781 57.7807L61.4042 50.5336H0V70.3118L18.8867 98.646L0 111.439V154.562L16.9727 171.526L34.1498 154.357L24.2852 144.493V124.338L52.4885 105.247L32.2031 74.827H57.6171L85.6813 83.8082L186.372 37.2745L262.655 24.3016H316.935L392.228 78.4096L543.354 92.7239L557.685 99.5866L561.988 103.873L566.666 119.062L564.891 134.972L550.757 156.206L570.961 169.694L588.391 143.536L591.36 116.715L583.426 90.9572Z" fill="#FFC800"/>
</svg>
