<svg width="295" height="219" viewBox="0 0 295 219" fill="none" xmlns="http://www.w3.org/2000/svg">
<path d="M280.196 86.3664H278.298L281.145 91.1118C290.636 107.246 296.331 157.548 280.196 182.224V208.798C280.196 214.492 275.451 218.289 270.706 218.289H256.469C250.775 218.289 246.979 214.492 246.979 208.798V196.46H48.6206V208.798C48.6206 214.492 44.8242 218.289 39.1297 218.289H24.8935C20.1481 218.289 15.4027 214.492 15.4027 208.798V184.122C-1.68076 160.395 4.01373 108.195 13.5045 91.1118L16.3518 86.3664H14.4536C6.86098 86.3664 0.217407 80.6719 0.217407 72.1302V65.4866C0.217407 60.7412 4.01373 55.9958 9.70822 55.9958H33.4353C40.0788 43.6577 46.7224 31.3197 53.366 18.9816C59.0604 9.49081 73.2967 0 86.5838 0H208.066C221.353 0 235.59 9.49081 241.284 18.9816C247.928 31.3197 254.571 43.6577 261.215 55.9958H284.942C290.636 55.9958 294.433 60.7412 294.433 65.4866V72.1302C294.433 80.6719 287.789 86.3664 280.196 86.3664ZM105.565 150.904H189.085C191.932 150.904 194.779 153.751 194.779 156.598C194.779 159.446 191.932 161.344 189.085 161.344H105.565C102.718 161.344 99.8709 159.446 99.8709 156.598C99.8709 153.751 102.718 150.904 105.565 150.904ZM243.182 120.533C232.742 120.533 222.302 129.075 218.506 139.515C215.659 149.955 222.302 158.497 232.742 158.497C243.182 158.497 253.622 149.955 256.469 139.515C259.317 129.075 253.622 120.533 243.182 120.533ZM51.4678 120.533C61.9077 120.533 72.3476 129.075 76.1439 139.515C78.9912 149.955 72.3476 158.497 61.9077 158.497C51.4678 158.497 41.0279 149.955 38.1807 139.515C35.3334 129.075 41.0279 120.533 51.4678 120.533ZM151.121 86.3664L156.816 77.8247C161.561 71.1811 169.154 71.1811 176.747 71.1811H209.964C217.557 71.1811 225.15 71.1811 229.895 77.8247L235.59 86.3664H250.775L227.048 26.5743C224.201 20.8798 211.863 15.1853 208.066 15.1853H86.5838C82.7875 15.1853 70.4494 20.8798 67.6022 26.5743L43.8751 86.3664H151.121ZM194.779 22.778C206.168 22.778 214.71 31.3197 214.71 42.7087C214.71 54.0976 206.168 63.5885 194.779 63.5885C183.39 63.5885 173.899 54.0976 173.899 42.7087C173.899 31.3197 183.39 22.778 194.779 22.778Z" fill="white"/>
</svg>
